<?xml version="1.0" encoding="utf-8"?>
<!-- Generator: Adobe Illustrator 26.3.1, SVG Export Plug-In . SVG Version: 6.00 Build 0)  -->
<svg version="1.1" id="Ebene_1" xmlns="http://www.w3.org/2000/svg" xmlns:xlink="http://www.w3.org/1999/xlink" x="0px" y="0px"
	 viewBox="0 0 1200 675" style="enable-background:new 0 0 1200 675;" xml:space="preserve">
<style type="text/css">
	.st0{fill:#FF7557;}
	.st1{fill:#FFFFFF;stroke:#FCFCFC;stroke-miterlimit:10;}
</style>
<rect class="st0" width="1200" height="675"/>
<g>
	<g>
		<path class="st1" d="M212,306.6c2.8,0,5.1,0.7,6.8,2c1.7,1.3,2.4,3.5,2,6.6c-0.1,2.5-1.3,4.5-3.6,6c-2.3,1.5-4.9,2.2-7.8,2.2H196
			l-4.8,28.4H204c3.1,0,5.4,0.7,6.9,2.2c1.5,1.5,2.3,3.4,2.3,5.8c0,2.1-1.1,4.1-3.2,6c-2.1,1.9-5,2.8-8.6,2.8H187l-6.6,38.2
			c-0.5,2.9-1.7,5.3-3.5,7.2c-1.8,1.9-4.2,2.8-7.3,2.8c-2.9,0-5.1-1.1-6.5-3.2c-1.4-2.1-1.8-4.7-1.3-7.6l6.2-37.4h-30.8l-6.4,38.2
			c-0.5,2.8-1.8,5.2-3.7,7.1c-1.9,1.9-4.3,2.9-7.1,2.9c-2.9,0-5.1-0.9-6.6-2.7c-1.5-1.8-1.9-4.5-1.4-8.1l6.4-37.4h-13.8
			c-2.8,0-5-0.7-6.7-2.1c-1.7-1.4-2.4-3.2-2.3-5.5c0.3-3.1,1.4-5.4,3.5-6.9c2.1-1.5,4.8-2.3,8.1-2.3h15.4l4.6-28.4h-14.8
			c-2.7,0-4.9-0.6-6.6-1.8c-1.7-1.2-2.6-3.1-2.6-5.6c0-3.2,1.1-5.6,3.2-7.1c2.1-1.5,5-2.3,8.6-2.3h16.2l6.6-36.2
			c0.7-3.1,1.9-5.5,3.6-7.3c1.7-1.8,4.1-2.7,7.2-2.7c2.9,0,5.2,1,6.7,3c1.5,2,2,4.6,1.3,7.8l-6.4,35.4H181l6.6-36.2
			c0.5-2.8,1.7-5.2,3.6-7.1c1.9-1.9,4.3-2.9,7.2-2.9c3.1,0,5.3,1,6.7,3s1.8,4.6,1.1,7.8l-6.2,35.4H212z M172.2,351.8l4.8-28.4h-30.8
			l-4.6,28.4H172.2z"/>
		<path class="st1" d="M247.8,416.8c-2.9,0-5.4-1-7.4-3s-3-4.5-3-7.4V271c0-3.1,1-5.6,3-7.5c2-1.9,4.5-2.9,7.4-2.9h90.4
			c3.1,0,5.5,0.9,7.4,2.7c1.9,1.8,2.8,4.2,2.8,7.1c0,2.8-0.9,5.1-2.8,6.8c-1.9,1.7-4.3,2.6-7.4,2.6h-80v48.6h57.4
			c3.1,0,5.5,0.9,7.4,2.7c1.9,1.8,2.8,4.1,2.8,6.9c0,2.8-0.9,5.1-2.8,6.9c-1.9,1.8-4.3,2.7-7.4,2.7h-57.4v58.8c0,2.9-1,5.4-3,7.4
			S250.7,416.8,247.8,416.8z"/>
		<path class="st1" d="M447.2,418.8c-11.7,0-22.5-2-32.2-5.9c-9.7-3.9-18.1-9.5-25.1-16.6c-7-7.1-12.4-15.6-16.3-25.4
			c-3.9-9.8-5.8-20.6-5.8-32.3c0-11.7,1.9-22.5,5.8-32.2c3.9-9.7,9.3-18.2,16.3-25.3c7-7.1,15.4-12.7,25.1-16.6
			c9.7-3.9,20.5-5.9,32.2-5.9c11.7,0,22.4,2,32.1,5.9c9.7,3.9,18,9.5,25.1,16.6c7.1,7.1,12.5,15.6,16.4,25.3
			c3.9,9.7,5.8,20.5,5.8,32.2c0,11.7-1.9,22.5-5.8,32.3c-3.9,9.8-9.3,18.3-16.4,25.4c-7.1,7.1-15.4,12.7-25.1,16.6
			C469.6,416.9,458.9,418.8,447.2,418.8z M447.2,400c8.7,0,16.6-1.6,23.9-4.7c7.3-3.1,13.6-7.5,18.9-13c5.3-5.5,9.4-12,12.3-19.5
			c2.9-7.5,4.3-15.5,4.3-24.2c0-8.7-1.4-16.7-4.3-24.2c-2.9-7.5-7-14-12.3-19.5c-5.3-5.5-11.6-9.8-18.9-12.9
			c-7.3-3.1-15.2-4.6-23.9-4.6c-8.7,0-16.6,1.5-23.9,4.6c-7.3,3.1-13.5,7.4-18.8,12.9c-5.3,5.5-9.4,12-12.3,19.5
			c-2.9,7.5-4.4,15.5-4.4,24.2c0,8.7,1.5,16.7,4.4,24.2c2.9,7.5,7,14,12.3,19.5c5.3,5.5,11.5,9.9,18.8,13
			C430.6,398.5,438.5,400,447.2,400z"/>
		<path class="st1" d="M569.6,416.8c-2.9,0-5.4-1-7.4-3s-3-4.5-3-7.4V271c0-3.1,1-5.6,3-7.5c2-1.9,4.5-2.9,7.4-2.9h36
			c10,0,18.9,2.1,26.6,6.3c7.7,4.2,13.8,10,18.1,17.3c4.3,7.3,6.5,15.9,6.5,25.6c0,9.1-2.2,17.1-6.5,24.2
			c-4.3,7.1-10.4,12.6-18.1,16.6c-7.7,4-16.6,6-26.6,6H580v49.8c0,2.9-1,5.4-2.9,7.4C575.2,415.8,572.7,416.8,569.6,416.8z
			 M580,337.4h25.6c6.1,0,11.5-1.2,16.2-3.5c4.7-2.3,8.3-5.6,11-9.8c2.7-4.2,4-9,4-14.3c0-5.9-1.3-11.1-4-15.6
			c-2.7-4.5-6.3-8.1-11-10.6c-4.7-2.5-10.1-3.8-16.2-3.8H580V337.4z M652.6,416.8c-1.9,0-3.6-0.4-5.1-1.2c-1.5-0.8-2.8-2.1-3.9-3.8
			l-36-58l20.2-5.8l32.8,52.8c2.4,3.9,2.7,7.5,1,10.9C659.9,415.1,656.9,416.8,652.6,416.8z"/>
		<path class="st1" d="M755.6,418.8c-10.8,0-20.9-2-30.3-6.1c-9.4-4.1-17.6-9.7-24.6-17c-7-7.3-12.5-15.8-16.4-25.5
			c-3.9-9.7-5.9-20.3-5.9-31.6c0-11.2,2-21.6,5.9-31.3c3.9-9.7,9.4-18.1,16.4-25.4c7-7.3,15.2-13,24.5-17.1
			c9.3-4.1,19.5-6.2,30.4-6.2c10.3,0,19.1,1.3,26.5,4c7.4,2.7,14.8,7.1,22.3,13.2c1.1,0.8,1.9,1.6,2.5,2.5c0.6,0.9,1,1.7,1.2,2.6
			c0.2,0.9,0.3,1.9,0.3,3.1c0,2.5-0.9,4.6-2.7,6.3c-1.8,1.7-4,2.6-6.5,2.8c-2.5,0.2-5-0.6-7.4-2.5c-4.9-4.3-10-7.5-15.3-9.8
			c-5.3-2.3-12.2-3.4-20.9-3.4c-7.9,0-15.3,1.6-22.2,4.8c-6.9,3.2-13,7.6-18.3,13.2c-5.3,5.6-9.4,12.1-12.3,19.5
			c-2.9,7.4-4.4,15.3-4.4,23.7c0,8.5,1.5,16.5,4.4,23.9c2.9,7.4,7,13.9,12.3,19.5c5.3,5.6,11.4,10,18.3,13.1
			c6.9,3.1,14.3,4.7,22.2,4.7c6.8,0,13.2-1.2,19.3-3.5c6.1-2.3,11.9-5.6,17.5-9.7c2.4-1.7,4.8-2.5,7.1-2.3c2.3,0.2,4.3,1.1,5.9,2.8
			c1.6,1.7,2.4,4,2.4,6.9c0,1.3-0.3,2.6-0.8,3.9c-0.5,1.3-1.3,2.4-2.4,3.5c-7.2,5.7-14.9,10.1-23.1,13
			C773.3,417.4,764.7,418.8,755.6,418.8z"/>
		<path class="st1" d="M851.4,416.8c-2.9,0-5.4-1-7.4-3s-3-4.5-3-7.4V271c0-3.1,1-5.6,3-7.5c2-1.9,4.5-2.9,7.4-2.9h90.4
			c3.1,0,5.5,0.9,7.4,2.7c1.9,1.8,2.8,4.2,2.8,7.1c0,2.8-0.9,5.1-2.8,6.8c-1.9,1.7-4.3,2.6-7.4,2.6h-80v48.6h57.4
			c3.1,0,5.5,0.9,7.4,2.7c1.9,1.8,2.8,4.1,2.8,6.9c0,2.8-0.9,5.1-2.8,6.9c-1.9,1.8-4.3,2.7-7.4,2.7h-57.4v50h80
			c3.1,0,5.5,0.9,7.4,2.6c1.9,1.7,2.8,4,2.8,6.8c0,2.9-0.9,5.3-2.8,7.1c-1.9,1.8-4.3,2.7-7.4,2.7H851.4z"/>
		<path class="st1" d="M1009.2,416.8c-2.7,0-5-1-7-3s-3-4.4-3-7.2v-122l-14.6,6.2c-2.3,0.9-4.4,1.4-6.4,1.4c-2.9,0-5.4-0.9-7.3-2.8
			c-1.9-1.9-2.9-4.3-2.9-7.2c0-2.1,0.5-4.1,1.6-5.8c1.1-1.7,2.7-3,5-3.8l31.2-11.2c0.7-0.3,1.3-0.5,2-0.6c0.7-0.1,1.3-0.2,1.8-0.2
			c3.1,0,5.5,1,7.3,2.9c1.8,1.9,2.7,4.4,2.7,7.5v135.6c0,2.8-1,5.2-3,7.2S1012.1,416.8,1009.2,416.8z"/>
		<path class="st1" d="M1087.8,416.8c-2.7,0-5-1-7-3s-3-4.4-3-7.2v-122l-14.6,6.2c-2.3,0.9-4.4,1.4-6.4,1.4c-2.9,0-5.4-0.9-7.3-2.8
			c-1.9-1.9-2.9-4.3-2.9-7.2c0-2.1,0.5-4.1,1.6-5.8c1.1-1.7,2.7-3,5-3.8l31.2-11.2c0.7-0.3,1.3-0.5,2-0.6c0.7-0.1,1.3-0.2,1.8-0.2
			c3.1,0,5.5,1,7.3,2.9c1.8,1.9,2.7,4.4,2.7,7.5v135.6c0,2.8-1,5.2-3,7.2S1090.7,416.8,1087.8,416.8z"/>
	</g>
</g>
</svg>
