<?xml version="1.0" encoding="utf-8"?>
<!-- Generator: Adobe Illustrator 26.3.1, SVG Export Plug-In . SVG Version: 6.00 Build 0)  -->
<svg version="1.1"
	 id="svg4327" xmlns:inkscape="http://www.inkscape.org/namespaces/inkscape" xmlns:sodipodi="http://sodipodi.sourceforge.net/DTD/sodipodi-0.dtd" xmlns:svg="http://www.w3.org/2000/svg" inkscape:version="1.1.1 (3bf5ae0d25, 2021-09-20)" inkscape:export-xdpi="76.769997" xmlns:cc="http://creativecommons.org/ns#" xmlns:dc="http://purl.org/dc/elements/1.1/" inkscape:export-ydpi="76.769997" sodipodi:docname="force11-logotype-horizontal.svg" xmlns:rdf="http://www.w3.org/1999/02/22-rdf-syntax-ns#" inkscape:export-filename="\\tib.tibub.de\DFS0\Home\WorthingtonS\Documents\force11\design\logo-font-comfortaa\logo090721\force11-logo-09072021-8CBFD0-272727.png"
	 xmlns="http://www.w3.org/2000/svg" xmlns:xlink="http://www.w3.org/1999/xlink" x="0px" y="0px" viewBox="0 0 494.7 84.7"
	 style="enable-background:new 0 0 494.7 84.7;" xml:space="preserve">
<style type="text/css">
	.st0{enable-background:new    ;}
	.st1{fill:#272727;}
	.st2{fill:none;stroke:#272727;}
	.st3{fill:#8ABFD0;}
	.st4{opacity:0.486;fill:#54EEFF;fill-opacity:0;enable-background:new    ;}
</style>
<sodipodi:namedview  bordercolor="#666666" borderopacity="1.0" fit-margin-bottom="1" fit-margin-left="1" fit-margin-right="1" fit-margin-top="1" id="base" inkscape:current-layer="g4952" inkscape:cx="144.19315" inkscape:cy="29.531083" inkscape:document-units="px" inkscape:pagecheckerboard="0" inkscape:pageopacity="0.0" inkscape:pageshadow="2" inkscape:window-height="1057" inkscape:window-maximized="1" inkscape:window-width="1920" inkscape:window-x="-8" inkscape:window-y="-8" inkscape:zoom="2.4550403" pagecolor="#ffffff" showgrid="false" units="px">
	</sodipodi:namedview>
<g id="layer1" transform="translate(285.51257,-701.22861)" inkscape:label="Layer 1" inkscape:groupmode="layer">
	<g id="g4952" transform="translate(-362.2432,534.26542)">
		<g>
			<g class="st0">
				<path class="st1" d="M186.2,243.7c-1,0-1.8-0.3-2.5-1c-0.7-0.7-1-1.5-1-2.5v-63.3c0-1,0.3-1.9,1-2.5c0.7-0.7,1.5-1,2.5-1h42.2
					c1,0,1.9,0.3,2.5,0.9c0.7,0.6,1,1.5,1,2.5c0,0.9-0.3,1.7-1,2.3c-0.7,0.7-1.5,1-2.5,1h-38.7V205h28.2c1,0,1.9,0.3,2.5,1
					c0.7,0.7,1,1.5,1,2.4c0,1-0.3,1.8-1,2.4c-0.7,0.7-1.5,1-2.5,1h-28.2v28.4c0,1-0.3,1.8-1,2.5
					C188.1,243.4,187.2,243.7,186.2,243.7z"/>
				<path class="st1" d="M277,244.6c-5.2,0-10-0.9-14.4-2.7c-4.4-1.8-8.2-4.3-11.4-7.6c-3.2-3.2-5.7-7-7.5-11.4
					c-1.8-4.4-2.7-9.2-2.7-14.4c0-5.2,0.9-9.9,2.7-14.3c1.8-4.4,4.3-8.2,7.5-11.4c3.2-3.2,7-5.8,11.4-7.6c4.4-1.8,9.2-2.7,14.4-2.7
					c5.2,0,9.9,0.9,14.3,2.7c4.4,1.8,8.2,4.3,11.4,7.6c3.2,3.2,5.7,7.1,7.5,11.4c1.8,4.4,2.7,9.2,2.7,14.3c0,5.2-0.9,10-2.7,14.4
					c-1.8,4.4-4.3,8.2-7.5,11.4c-3.2,3.2-7.1,5.8-11.4,7.6C286.9,243.7,282.2,244.6,277,244.6z M277,237.9c4.1,0,8-0.7,11.5-2.2
					c3.5-1.5,6.6-3.5,9.2-6.2c2.6-2.7,4.6-5.8,6.1-9.4c1.4-3.6,2.2-7.5,2.2-11.7c0-4.1-0.7-8-2.2-11.6c-1.4-3.6-3.5-6.7-6.1-9.4
					c-2.6-2.7-5.7-4.7-9.2-6.2c-3.5-1.5-7.4-2.2-11.5-2.2c-4.2,0-8.1,0.7-11.6,2.2c-3.5,1.5-6.6,3.5-9.2,6.2
					c-2.6,2.7-4.6,5.8-6.1,9.4c-1.4,3.6-2.2,7.4-2.2,11.6c0,4.2,0.7,8.1,2.2,11.7c1.4,3.6,3.5,6.7,6.1,9.4c2.6,2.7,5.7,4.7,9.2,6.2
					C268.9,237.2,272.8,237.9,277,237.9z"/>
				<path class="st1" d="M330.9,243.7c-1,0-1.9-0.3-2.5-1c-0.7-0.7-1-1.5-1-2.5v-63.3c0-1,0.3-1.9,1-2.5c0.7-0.7,1.5-1,2.5-1h16.8
					c4.4,0,8.3,0.9,11.7,2.7c3.4,1.8,6.1,4.4,8.1,7.7c1.9,3.3,2.9,7,2.9,11.3c0,4.1-1,7.7-2.9,10.9c-2,3.2-4.6,5.7-8.1,7.5
					s-7.3,2.7-11.7,2.7h-13.3v24c0,1-0.3,1.9-1,2.5C332.8,243.4,331.9,243.7,330.9,243.7z M334.4,209.4h13.3c3.1,0,5.8-0.6,8.1-1.8
					c2.4-1.2,4.2-2.9,5.6-5.1c1.4-2.2,2.1-4.6,2.1-7.4c0-2.9-0.7-5.5-2.1-7.8c-1.4-2.2-3.3-4-5.6-5.3c-2.4-1.3-5.1-1.9-8.1-1.9
					h-13.3V209.4z M368.5,243.7c-0.8,0-1.4-0.1-1.8-0.5c-0.5-0.3-0.9-0.7-1.2-1.3l-17.3-27.5l7-1.8l16.1,25.7
					c0.9,1.4,1.1,2.7,0.5,3.8C371.3,243.2,370.2,243.7,368.5,243.7z"/>
				<path class="st1" d="M414.6,244.6c-4.9,0-9.4-0.9-13.6-2.8c-4.2-1.9-8-4.5-11.2-7.8c-3.2-3.3-5.7-7.2-7.5-11.5
					c-1.8-4.3-2.7-9-2.7-14c0-4.9,0.9-9.6,2.7-13.9c1.8-4.3,4.3-8.2,7.5-11.5c3.2-3.3,6.9-5.9,11.2-7.8c4.2-1.9,8.8-2.8,13.7-2.8
					c4.3,0,8.2,0.6,11.8,1.9c3.5,1.3,7,3.3,10.3,6c0.5,0.4,0.9,0.9,0.9,1.5c0.1,0.6,0,1.1-0.2,1.6c-0.2,0.5-0.6,0.9-1.1,1.1
					c-0.1,0.5-0.4,0.8-0.9,1.1c-0.5,0.2-1,0.3-1.7,0.3c-0.6-0.1-1.2-0.3-1.8-0.8c-2.3-2-4.9-3.6-7.6-4.5c-2.8-1-6-1.5-9.6-1.5
					c-3.9,0-7.5,0.8-10.9,2.3c-3.4,1.6-6.4,3.7-9,6.4c-2.6,2.7-4.6,5.8-6.1,9.4c-1.5,3.5-2.2,7.3-2.2,11.2c0,4.1,0.7,7.9,2.2,11.4
					c1.5,3.5,3.5,6.7,6.1,9.4c2.6,2.7,5.6,4.8,9,6.3c3.4,1.5,7,2.3,10.9,2.3c3.3,0,6.4-0.5,9.4-1.6c2.9-1.1,5.7-2.6,8.4-4.7
					c0.7-0.6,1.5-0.8,2.3-0.7c0.8,0.1,1.5,0.5,2.1,1.1c0.6,0.6,0.9,1.4,0.9,2.3c0,0.5-0.1,0.9-0.2,1.3c-0.2,0.4-0.4,0.8-0.8,1.2
					c-3.1,2.8-6.5,4.8-10.3,6C422.6,244,418.7,244.6,414.6,244.6z"/>
				<path class="st1" d="M455.9,243.7c-1,0-1.9-0.3-2.5-1c-0.7-0.7-1-1.5-1-2.5v-63.3c0-1,0.3-1.9,1-2.5c0.7-0.7,1.5-1,2.5-1h42.2
					c1,0,1.8,0.3,2.5,0.9c0.7,0.6,1,1.5,1,2.5c0,0.9-0.3,1.7-1,2.3c-0.7,0.7-1.5,1-2.5,1h-38.7V205h28.2c1,0,1.9,0.3,2.5,1
					c0.7,0.7,1,1.5,1,2.4c0,1-0.3,1.8-1,2.4c-0.7,0.7-1.5,1-2.5,1h-28.2V237h38.7c1,0,1.8,0.3,2.5,1c0.7,0.7,1,1.4,1,2.3
					c0,1-0.3,1.8-1,2.5c-0.7,0.6-1.5,0.9-2.5,0.9H455.9z"/>
				<path class="st1" d="M527.2,243.7c-1,0-1.8-0.3-2.5-1c-0.7-0.7-1-1.5-1-2.5v-58.5l-9,3.1c-0.7,0.3-1.3,0.5-1.8,0.5
					c-1,0-1.9-0.3-2.5-1c-0.7-0.7-1-1.5-1-2.4c0-0.7,0.2-1.4,0.5-2c0.3-0.6,0.9-1,1.8-1.4l13.9-4.8c0.3-0.1,0.6-0.2,0.9-0.3
					c0.3-0.1,0.6-0.1,0.9-0.1c1,0,1.8,0.3,2.5,1c0.6,0.7,0.9,1.5,0.9,2.5v63.4c0,1-0.3,1.9-1,2.5
					C529.1,243.4,528.2,243.7,527.2,243.7z"/>
				<path class="st1" d="M561.2,243.7c-1,0-1.8-0.3-2.5-1c-0.7-0.7-1-1.5-1-2.5v-58.5l-9,3.1c-0.7,0.3-1.3,0.5-1.8,0.5
					c-1,0-1.9-0.3-2.5-1c-0.7-0.7-1-1.5-1-2.4c0-0.7,0.2-1.4,0.5-2c0.3-0.6,0.9-1,1.8-1.4l13.9-4.8c0.3-0.1,0.6-0.2,0.9-0.3
					c0.3-0.1,0.6-0.1,0.9-0.1c1,0,1.8,0.3,2.5,1c0.6,0.7,0.9,1.5,0.9,2.5v63.4c0,1-0.3,1.9-1,2.5
					C563.1,243.4,562.3,243.7,561.2,243.7z"/>
			</g>
		</g>
		<g>
			<g class="st0">
				<path class="st2" d="M186.2,243.7c-1,0-1.8-0.3-2.5-1c-0.7-0.7-1-1.5-1-2.5v-63.3c0-1,0.3-1.9,1-2.5c0.7-0.7,1.5-1,2.5-1h42.2
					c1,0,1.9,0.3,2.5,0.9c0.7,0.6,1,1.5,1,2.5c0,0.9-0.3,1.7-1,2.3c-0.7,0.7-1.5,1-2.5,1h-38.7V205h28.2c1,0,1.9,0.3,2.5,1
					c0.7,0.7,1,1.5,1,2.4c0,1-0.3,1.8-1,2.4c-0.7,0.7-1.5,1-2.5,1h-28.2v28.4c0,1-0.3,1.8-1,2.5
					C188.1,243.4,187.2,243.7,186.2,243.7z"/>
				<path class="st2" d="M277,244.6c-5.2,0-10-0.9-14.4-2.7c-4.4-1.8-8.2-4.3-11.4-7.6c-3.2-3.2-5.7-7-7.5-11.4
					c-1.8-4.4-2.7-9.2-2.7-14.4c0-5.2,0.9-9.9,2.7-14.3c1.8-4.4,4.3-8.2,7.5-11.4c3.2-3.2,7-5.8,11.4-7.6c4.4-1.8,9.2-2.7,14.4-2.7
					c5.2,0,9.9,0.9,14.3,2.7c4.4,1.8,8.2,4.3,11.4,7.6c3.2,3.2,5.7,7.1,7.5,11.4c1.8,4.4,2.7,9.2,2.7,14.3c0,5.2-0.9,10-2.7,14.4
					c-1.8,4.4-4.3,8.2-7.5,11.4c-3.2,3.2-7.1,5.8-11.4,7.6C286.9,243.7,282.2,244.6,277,244.6z M277,237.9c4.1,0,8-0.7,11.5-2.2
					c3.5-1.5,6.6-3.5,9.2-6.2c2.6-2.7,4.6-5.8,6.1-9.4c1.4-3.6,2.2-7.5,2.2-11.7c0-4.1-0.7-8-2.2-11.6c-1.4-3.6-3.5-6.7-6.1-9.4
					c-2.6-2.7-5.7-4.7-9.2-6.2c-3.5-1.5-7.4-2.2-11.5-2.2c-4.2,0-8.1,0.7-11.6,2.2c-3.5,1.5-6.6,3.5-9.2,6.2
					c-2.6,2.7-4.6,5.8-6.1,9.4c-1.4,3.6-2.2,7.4-2.2,11.6c0,4.2,0.7,8.1,2.2,11.7c1.4,3.6,3.5,6.7,6.1,9.4c2.6,2.7,5.7,4.7,9.2,6.2
					C268.9,237.2,272.8,237.9,277,237.9z"/>
				<path class="st2" d="M330.9,243.7c-1,0-1.9-0.3-2.5-1c-0.7-0.7-1-1.5-1-2.5v-63.3c0-1,0.3-1.9,1-2.5c0.7-0.7,1.5-1,2.5-1h16.8
					c4.4,0,8.3,0.9,11.7,2.7c3.4,1.8,6.1,4.4,8.1,7.7c1.9,3.3,2.9,7,2.9,11.3c0,4.1-1,7.7-2.9,10.9c-2,3.2-4.6,5.7-8.1,7.5
					s-7.3,2.7-11.7,2.7h-13.3v24c0,1-0.3,1.9-1,2.5C332.8,243.4,331.9,243.7,330.9,243.7z M334.4,209.4h13.3c3.1,0,5.8-0.6,8.1-1.8
					c2.4-1.2,4.2-2.9,5.6-5.1c1.4-2.2,2.1-4.6,2.1-7.4c0-2.9-0.7-5.5-2.1-7.8c-1.4-2.2-3.3-4-5.6-5.3c-2.4-1.3-5.1-1.9-8.1-1.9
					h-13.3V209.4z M368.5,243.7c-0.8,0-1.4-0.1-1.8-0.5c-0.5-0.3-0.9-0.7-1.2-1.3l-17.3-27.5l7-1.8l16.1,25.7
					c0.9,1.4,1.1,2.7,0.5,3.8C371.3,243.2,370.2,243.7,368.5,243.7z"/>
				<path class="st2" d="M414.6,244.6c-4.9,0-9.4-0.9-13.6-2.8c-4.2-1.9-8-4.5-11.2-7.8c-3.2-3.3-5.7-7.2-7.5-11.5
					c-1.8-4.3-2.7-9-2.7-14c0-4.9,0.9-9.6,2.7-13.9c1.8-4.3,4.3-8.2,7.5-11.5c3.2-3.3,6.9-5.9,11.2-7.8c4.2-1.9,8.8-2.8,13.7-2.8
					c4.3,0,8.2,0.6,11.8,1.9c3.5,1.3,7,3.3,10.3,6c0.5,0.4,0.9,0.9,0.9,1.5c0.1,0.6,0,1.1-0.2,1.6c-0.2,0.5-0.6,0.9-1.1,1.1
					c-0.1,0.5-0.4,0.8-0.9,1.1c-0.5,0.2-1,0.3-1.7,0.3c-0.6-0.1-1.2-0.3-1.8-0.8c-2.3-2-4.9-3.6-7.6-4.5c-2.8-1-6-1.5-9.6-1.5
					c-3.9,0-7.5,0.8-10.9,2.3c-3.4,1.6-6.4,3.7-9,6.4c-2.6,2.7-4.6,5.8-6.1,9.4c-1.5,3.5-2.2,7.3-2.2,11.2c0,4.1,0.7,7.9,2.2,11.4
					c1.5,3.5,3.5,6.7,6.1,9.4c2.6,2.7,5.6,4.8,9,6.3c3.4,1.5,7,2.3,10.9,2.3c3.3,0,6.4-0.5,9.4-1.6c2.9-1.1,5.7-2.6,8.4-4.7
					c0.7-0.6,1.5-0.8,2.3-0.7c0.8,0.1,1.5,0.5,2.1,1.1c0.6,0.6,0.9,1.4,0.9,2.3c0,0.5-0.1,0.9-0.2,1.3c-0.2,0.4-0.4,0.8-0.8,1.2
					c-3.1,2.8-6.5,4.8-10.3,6C422.6,244,418.7,244.6,414.6,244.6z"/>
				<path class="st2" d="M455.9,243.7c-1,0-1.9-0.3-2.5-1c-0.7-0.7-1-1.5-1-2.5v-63.3c0-1,0.3-1.9,1-2.5c0.7-0.7,1.5-1,2.5-1h42.2
					c1,0,1.8,0.3,2.5,0.9c0.7,0.6,1,1.5,1,2.5c0,0.9-0.3,1.7-1,2.3c-0.7,0.7-1.5,1-2.5,1h-38.7V205h28.2c1,0,1.9,0.3,2.5,1
					c0.7,0.7,1,1.5,1,2.4c0,1-0.3,1.8-1,2.4c-0.7,0.7-1.5,1-2.5,1h-28.2V237h38.7c1,0,1.8,0.3,2.5,1c0.7,0.7,1,1.4,1,2.3
					c0,1-0.3,1.8-1,2.5c-0.7,0.6-1.5,0.9-2.5,0.9H455.9z"/>
				<path class="st2" d="M527.2,243.7c-1,0-1.8-0.3-2.5-1c-0.7-0.7-1-1.5-1-2.5v-58.5l-9,3.1c-0.7,0.3-1.3,0.5-1.8,0.5
					c-1,0-1.9-0.3-2.5-1c-0.7-0.7-1-1.5-1-2.4c0-0.7,0.2-1.4,0.5-2c0.3-0.6,0.9-1,1.8-1.4l13.9-4.8c0.3-0.1,0.6-0.2,0.9-0.3
					c0.3-0.1,0.6-0.1,0.9-0.1c1,0,1.8,0.3,2.5,1c0.6,0.7,0.9,1.5,0.9,2.5v63.4c0,1-0.3,1.9-1,2.5
					C529.1,243.4,528.2,243.7,527.2,243.7z"/>
				<path class="st2" d="M561.2,243.7c-1,0-1.8-0.3-2.5-1c-0.7-0.7-1-1.5-1-2.5v-58.5l-9,3.1c-0.7,0.3-1.3,0.5-1.8,0.5
					c-1,0-1.9-0.3-2.5-1c-0.7-0.7-1-1.5-1-2.4c0-0.7,0.2-1.4,0.5-2c0.3-0.6,0.9-1,1.8-1.4l13.9-4.8c0.3-0.1,0.6-0.2,0.9-0.3
					c0.3-0.1,0.6-0.1,0.9-0.1c1,0,1.8,0.3,2.5,1c0.6,0.7,0.9,1.5,0.9,2.5v63.4c0,1-0.3,1.9-1,2.5
					C563.1,243.4,562.3,243.7,561.2,243.7z"/>
			</g>
		</g>
		
			<path id="path4205" inkscape:export-xdpi="76.769997" inkscape:export-ydpi="76.769997" inkscape:export-filename="C:\Users\simon\OneDrive\Documents\GitHub\force11-website\images\force11-logo\force11-logotype-horizontal.png" class="st3" d="
			M119.8,168c-23.3,0-42.1,18.5-42.1,41.4c0,22.9,18.9,41.4,42.1,41.4c23.3,0,42.1-18.5,42.1-41.4C162,186.5,143.1,168,119.8,168z
			 M122.2,173.9c19.6,0,35.5,15.9,35.5,35.5c0,0,0,0,0,0c0,19.6-15.9,35.5-35.5,35.5c0,0,0,0,0,0c-19.6,0-35.5-15.9-35.5-35.5
			C86.8,189.8,102.7,173.9,122.2,173.9z"/>
		<path id="path4207" class="st3" d="M115.2,185.3c-13.3,0-24,10.8-24,24c0,0,0,0,0,0c0,13.3,10.8,24,24,24c0,0,0,0,0,0
			c13.3,0,24-10.8,24-24c0,0,0,0,0,0C139.2,196.1,128.5,185.3,115.2,185.3C115.2,185.3,115.2,185.3,115.2,185.3z M116,191.9
			c9.6,0,17.4,7.8,17.4,17.4c0,9.6-7.8,17.4-17.4,17.4c-9.6,0-17.4-7.8-17.4-17.4C98.6,199.7,106.4,191.9,116,191.9z"/>
		<circle id="path4209" class="st3" cx="111.7" cy="209.3" r="9.4"/>
		<circle id="path4184" class="st4" cx="112.7" cy="209.1" r="9.5"/>
	</g>
</g>
</svg>
