<?xml version="1.0" encoding="UTF-8" standalone="no"?>
<!-- Created with Inkscape (http://www.inkscape.org/) -->

<svg
   width="400"
   height="84.749832"
   viewBox="0 0 400 84.749831"
   id="svg4327"
   version="1.1"
   inkscape:version="1.2.2 (732a01da63, 2022-12-09)"
   sodipodi:docname="force11-logotype-horizontal-black-272727-on-trans.svg"
   inkscape:export-filename="\\tib.tibub.de\DFS0\Home\WorthingtonS\Documents\force11\design\logo-font-comfortaa\logo090721\force11-logo-09072021-8CBFD0-272727.png"
   inkscape:export-xdpi="76.769997"
   inkscape:export-ydpi="76.769997"
   xmlns:inkscape="http://www.inkscape.org/namespaces/inkscape"
   xmlns:sodipodi="http://sodipodi.sourceforge.net/DTD/sodipodi-0.dtd"
   xmlns="http://www.w3.org/2000/svg"
   xmlns:svg="http://www.w3.org/2000/svg"
   xmlns:rdf="http://www.w3.org/1999/02/22-rdf-syntax-ns#"
   xmlns:cc="http://creativecommons.org/ns#"
   xmlns:dc="http://purl.org/dc/elements/1.1/">
  <defs
     id="defs4329" />
  <sodipodi:namedview
     id="base"
     pagecolor="#ffffff"
     bordercolor="#666666"
     borderopacity="1.0"
     inkscape:pageopacity="0.0"
     inkscape:pageshadow="2"
     inkscape:zoom="2.4550403"
     inkscape:cx="201.62602"
     inkscape:cy="29.734746"
     inkscape:document-units="px"
     inkscape:current-layer="text4136"
     showgrid="false"
     units="px"
     fit-margin-top="1"
     fit-margin-left="1"
     fit-margin-right="1"
     fit-margin-bottom="1"
     inkscape:window-width="1920"
     inkscape:window-height="1057"
     inkscape:window-x="-8"
     inkscape:window-y="-8"
     inkscape:window-maximized="1"
     inkscape:pagecheckerboard="0"
     width="400px"
     inkscape:showpageshadow="2"
     inkscape:deskcolor="#d1d1d1" />
  <metadata
     id="metadata4332">
    <rdf:RDF>
      <cc:Work
         rdf:about="">
        <dc:format>image/svg+xml</dc:format>
        <dc:type
           rdf:resource="http://purl.org/dc/dcmitype/StillImage" />
      </cc:Work>
    </rdf:RDF>
  </metadata>
  <g
     inkscape:label="Layer 1"
     inkscape:groupmode="layer"
     id="layer1"
     transform="translate(285.51257,-701.22861)">
    <g
       transform="translate(-362.2432,534.26542)"
       id="g4952">
      <g
         aria-label="FORCE11"
         id="text4136"
         style="line-height:0%;letter-spacing:0px;word-spacing:0px;fill:#272727;stroke:#272727;stroke-width:1px">
        <path
           d="m 87.935133,244.52281 q -1.98,0 -3.33,-1.35 -1.35,-1.35 -1.35,-3.33 v -60.93 q 0,-2.07 1.35,-3.33 1.35,-1.35 3.33,-1.35 h 40.679997 q 2.07,0 3.33,1.26 1.26,1.17 1.26,3.15 0,1.89 -1.26,3.06 -1.26,1.17 -3.33,1.17 H 92.615133 v 21.87 h 25.829997 q 2.07,0 3.33,1.26 1.26,1.17 1.26,3.06 0,1.89 -1.26,3.15 -1.26,1.17 -3.33,1.17 H 92.615133 v 26.46 q 0,1.98 -1.35,3.33 -1.35,1.35 -3.33,1.35 z"
           style="font-weight:bold;font-size:90px;line-height:1.25;font-family:Comfortaa;-inkscape-font-specification:'Comfortaa Bold'"
           id="path3000" />
        <path
           d="m 177.66513,245.42281 q -7.92,0 -14.49,-2.61 -6.57,-2.7 -11.34,-7.47 -4.68,-4.86 -7.29,-11.43 -2.61,-6.66 -2.61,-14.58 0,-7.92 2.61,-14.49 2.61,-6.57 7.29,-11.34 4.77,-4.86 11.34,-7.47 6.57,-2.7 14.49,-2.7 7.92,0 14.4,2.7 6.57,2.61 11.34,7.47 4.77,4.77 7.38,11.34 2.61,6.57 2.61,14.49 0,7.92 -2.61,14.58 -2.61,6.57 -7.38,11.43 -4.77,4.77 -11.34,7.47 -6.48,2.61 -14.4,2.61 z m 0,-8.46 q 5.85,0 10.71,-2.07 4.95,-2.16 8.55,-5.85 3.6,-3.78 5.49,-8.82 1.98,-5.04 1.98,-10.89 0,-5.85 -1.98,-10.89 -1.89,-5.04 -5.49,-8.73 -3.6,-3.78 -8.55,-5.85 -4.86,-2.07 -10.71,-2.07 -5.85,0 -10.8,2.07 -4.86,2.07 -8.46,5.85 -3.51,3.69 -5.49,8.73 -1.98,5.04 -1.98,10.89 0,5.85 1.98,10.89 1.98,5.04 5.49,8.82 3.6,3.69 8.46,5.85 4.95,2.07 10.8,2.07 z"
           style="font-weight:bold;font-size:90px;line-height:1.25;font-family:Comfortaa;-inkscape-font-specification:'Comfortaa Bold'"
           id="path3002" />
        <path
           d="m 232.74509,244.52281 q -1.98,0 -3.33,-1.35 -1.35,-1.35 -1.35,-3.33 v -60.93 q 0,-2.07 1.35,-3.33 1.35,-1.35 3.33,-1.35 h 16.2 q 6.75,0 11.97,2.88 5.22,2.79 8.1,7.74 2.97,4.95 2.97,11.52 0,6.12 -2.97,10.89 -2.88,4.77 -8.1,7.47 -5.22,2.7 -11.97,2.7 h -11.52 v 22.41 q 0,1.98 -1.35,3.33 -1.26,1.35 -3.33,1.35 z m 37.35,0 q -1.26,0 -2.34,-0.54 -0.99,-0.54 -1.71,-1.71 l -16.2,-26.1 9.09,-2.61 14.76,23.76 q 1.62,2.61 0.45,4.95 -1.17,2.25 -4.05,2.25 z m -32.67,-35.73 h 11.52 q 4.14,0 7.29,-1.53 3.15,-1.62 4.95,-4.41 1.8,-2.88 1.8,-6.48 0,-3.96 -1.8,-7.02 -1.8,-3.06 -4.95,-4.77 -3.15,-1.71 -7.29,-1.71 h -11.52 z"
           style="font-weight:bold;font-size:90px;line-height:1.25;font-family:Comfortaa;-inkscape-font-specification:'Comfortaa Bold'"
           id="path3004" />
        <path
           d="m 316.44509,245.42281 q -7.29,0 -13.68,-2.7 -6.3,-2.79 -11.07,-7.65 -4.68,-4.95 -7.38,-11.52 -2.61,-6.57 -2.61,-14.22 0,-7.56 2.61,-14.04 2.7,-6.57 7.38,-11.43 4.77,-4.95 11.07,-7.74 6.3,-2.79 13.68,-2.79 6.93,0 11.88,1.8 5.04,1.8 10.08,5.94 0.72,0.54 1.08,1.17 0.45,0.54 0.54,1.17 0.18,0.54 0.18,1.35 0,1.71 -1.26,2.88 -1.17,1.08 -2.88,1.26 -1.71,0.09 -3.33,-1.17 -3.33,-2.88 -6.93,-4.41 -3.51,-1.53 -9.36,-1.53 -5.31,0 -9.99,2.16 -4.68,2.16 -8.28,5.94 -3.51,3.78 -5.49,8.82 -1.98,4.95 -1.98,10.62 0,5.76 1.98,10.8 1.98,4.95 5.49,8.73 3.6,3.78 8.28,5.94 4.68,2.07 9.99,2.07 4.59,0 8.64,-1.53 4.14,-1.62 7.92,-4.41 1.62,-1.17 3.15,-0.99 1.62,0.09 2.7,1.26 1.08,1.08 1.08,3.06 0,0.9 -0.36,1.8 -0.36,0.81 -1.08,1.53 -4.86,3.87 -10.44,5.85 -5.49,1.98 -11.61,1.98 z"
           style="font-weight:bold;font-size:90px;line-height:1.25;font-family:Comfortaa;-inkscape-font-specification:'Comfortaa Bold'"
           id="path3006" />
        <path
           d="m 359.55511,244.52281 q -1.98,0 -3.33,-1.35 -1.35,-1.35 -1.35,-3.33 v -60.93 q 0,-2.07 1.35,-3.33 1.35,-1.35 3.33,-1.35 h 40.68 q 2.07,0 3.33,1.26 1.26,1.17 1.26,3.15 0,1.89 -1.26,3.06 -1.26,1.17 -3.33,1.17 h -36 v 21.87 h 25.83 q 2.07,0 3.33,1.26 1.26,1.17 1.26,3.06 0,1.89 -1.26,3.15 -1.26,1.17 -3.33,1.17 h -25.83 v 22.5 h 36 q 2.07,0 3.33,1.17 1.26,1.17 1.26,3.06 0,1.98 -1.26,3.24 -1.26,1.17 -3.33,1.17 z"
           style="font-weight:bold;font-size:90px;line-height:1.25;font-family:Comfortaa;-inkscape-font-specification:'Comfortaa Bold'"
           id="path3008" />
        <path
           d="m 430.56521,244.52281 q -1.8,0 -3.15,-1.35 -1.35,-1.35 -1.35,-3.24 v -54.9 l -6.57,2.79 q -1.53,0.63 -2.88,0.63 -1.98,0 -3.33,-1.26 -1.26,-1.26 -1.26,-3.24 0,-1.44 0.72,-2.61 0.72,-1.17 2.25,-1.71 l 14.04,-5.04 q 0.45,-0.18 0.9,-0.27 0.45,-0.09 0.81,-0.09 2.07,0 3.24,1.35 1.26,1.26 1.26,3.33 v 61.02 q 0,1.89 -1.35,3.24 -1.35,1.35 -3.33,1.35 z"
           style="font-weight:bold;font-size:90px;line-height:1.25;font-family:Comfortaa;-inkscape-font-specification:'Comfortaa Bold'"
           id="path3010" />
        <path
           d="m 465.93517,244.52281 q -1.8,0 -3.15,-1.35 -1.35,-1.35 -1.35,-3.24 v -54.9 l -6.57,2.79 q -1.53,0.63 -2.88,0.63 -1.98,0 -3.33,-1.26 -1.26,-1.26 -1.26,-3.24 0,-1.44 0.72,-2.61 0.72,-1.17 2.25,-1.71 l 14.04,-5.04 q 0.45,-0.18 0.9,-0.27 0.45,-0.09 0.81,-0.09 2.07,0 3.24,1.35 1.26,1.26 1.26,3.33 v 61.02 q 0,1.89 -1.35,3.24 -1.35,1.35 -3.33,1.35 z"
           style="font-weight:bold;font-size:90px;line-height:1.25;font-family:Comfortaa;-inkscape-font-specification:'Comfortaa Bold'"
           id="path3012" />
      </g>
    </g>
  </g>
</svg>
