<?xml version="1.0" encoding="UTF-8" standalone="no"?>
<!-- Created with Inkscape (http://www.inkscape.org/) -->

<svg
   width="180"
   height="128"
   viewBox="0 0 180 128"
   id="svg4327"
   version="1.1"
   inkscape:version="1.2.2 (732a01da63, 2022-12-09)"
   sodipodi:docname="force11-logotype-stacked.svg"
   inkscape:export-filename="\\tib.tibub.de\DFS0\Home\WorthingtonS\Documents\force11\design\logo-font-comfortaa\logo090721\force11-logo-09072021-8CBFD0-272727.png"
   inkscape:export-xdpi="76.769997"
   inkscape:export-ydpi="76.769997"
   xmlns:inkscape="http://www.inkscape.org/namespaces/inkscape"
   xmlns:sodipodi="http://sodipodi.sourceforge.net/DTD/sodipodi-0.dtd"
   xmlns="http://www.w3.org/2000/svg"
   xmlns:svg="http://www.w3.org/2000/svg"
   xmlns:rdf="http://www.w3.org/1999/02/22-rdf-syntax-ns#"
   xmlns:cc="http://creativecommons.org/ns#"
   xmlns:dc="http://purl.org/dc/elements/1.1/">
  <defs
     id="defs4329" />
  <sodipodi:namedview
     id="base"
     pagecolor="#ffffff"
     bordercolor="#666666"
     borderopacity="1.0"
     inkscape:pageopacity="0.0"
     inkscape:pageshadow="2"
     inkscape:zoom="3.4719513"
     inkscape:cx="144.29926"
     inkscape:cy="98.503686"
     inkscape:document-units="px"
     inkscape:current-layer="text4136"
     showgrid="false"
     units="px"
     fit-margin-top="1"
     fit-margin-left="1"
     fit-margin-right="1"
     fit-margin-bottom="1"
     inkscape:window-width="1920"
     inkscape:window-height="1057"
     inkscape:window-x="-8"
     inkscape:window-y="-8"
     inkscape:window-maximized="1"
     inkscape:pagecheckerboard="0"
     showguides="true"
     inkscape:guide-bbox="true"
     inkscape:lockguides="false"
     inkscape:showpageshadow="2"
     inkscape:deskcolor="#d1d1d1">
    <sodipodi:guide
       position="72.096576,128.0455"
       orientation="0,-1"
       id="guide946"
       inkscape:locked="false" />
    <sodipodi:guide
       position="66.801347,86.498316"
       orientation="0,-1"
       id="guide948"
       inkscape:locked="false" />
    <sodipodi:guide
       position="56.618215,86.498316"
       orientation="0,-1"
       id="guide950"
       inkscape:locked="false" />
    <sodipodi:guide
       position="76.984479,46.987763"
       orientation="0,-1"
       id="guide952"
       inkscape:locked="false" />
    <sodipodi:guide
       position="245.10712,40.965932"
       orientation="0,-1"
       id="guide1012"
       inkscape:locked="false" />
    <sodipodi:guide
       position="181.45416,215.50755"
       orientation="1,0"
       id="guide1014"
       inkscape:locked="false" />
  </sodipodi:namedview>
  <metadata
     id="metadata4332">
    <rdf:RDF>
      <cc:Work
         rdf:about="">
        <dc:format>image/svg+xml</dc:format>
        <dc:type
           rdf:resource="http://purl.org/dc/dcmitype/StillImage" />
      </cc:Work>
    </rdf:RDF>
  </metadata>
  <g
     inkscape:label="Layer 1"
     inkscape:groupmode="layer"
     id="layer1"
     transform="translate(285.51257,-701.22861)">
    <g
       transform="translate(-362.2432,534.26542)"
       id="g4952"
       style="display:inline">
      <g
         aria-label="FORCE11"
         id="text4136"
         style="font-size:5.31249px;line-height:0%;letter-spacing:0px;word-spacing:0px;fill:#272727;stroke:#272727;stroke-width:0.442707px">
        <path
           d="m 83.354332,291.44067 q -0.876561,0 -1.474217,-0.59765 -0.597655,-0.59766 -0.597655,-1.47422 v -26.97418 q 0,-0.91641 0.597655,-1.47422 0.597656,-0.59766 1.474217,-0.59766 h 18.009348 q 0.91641,0 1.47422,0.55782 0.55781,0.51796 0.55781,1.39453 0,0.83671 -0.55781,1.35468 -0.55781,0.51797 -1.47422,0.51797 H 85.426205 v 9.68202 h 11.435142 q 0.916405,0 1.474216,0.55781 0.557812,0.51797 0.557812,1.35469 0,0.83671 -0.557812,1.39453 -0.557811,0.51796 -1.474216,0.51796 H 85.426205 v 11.71405 q 0,0.87656 -0.597656,1.47422 -0.597655,0.59765 -1.474217,0.59765 z"
           style="font-weight:bold;font-size:39.8437px;line-height:1.25;font-family:Comfortaa;-inkscape-font-specification:'Comfortaa Bold'"
           id="path2832" />
        <path
           d="m 123.0785,291.83911 q -3.50624,0 -6.41483,-1.15547 -2.90859,-1.19531 -5.02031,-3.30702 -2.07187,-2.15156 -3.22734,-5.06015 -1.15547,-2.94844 -1.15547,-6.45468 0,-3.50625 1.15547,-6.41484 1.15547,-2.90859 3.22734,-5.02031 2.11172,-2.15155 5.02031,-3.30702 2.90859,-1.19531 6.41483,-1.19531 3.50625,0 6.37499,1.19531 2.90859,1.15547 5.02031,3.30702 2.11172,2.11172 3.26718,5.02031 1.15547,2.90859 1.15547,6.41484 0,3.50624 -1.15547,6.45468 -1.15546,2.90859 -3.26718,5.06015 -2.11172,2.11171 -5.02031,3.30702 -2.86874,1.15547 -6.37499,1.15547 z m 0,-3.74531 q 2.58984,0 4.7414,-0.9164 2.19141,-0.95625 3.78515,-2.58984 1.59375,-1.67344 2.43047,-3.90469 0.87656,-2.23124 0.87656,-4.82108 0,-2.58984 -0.87656,-4.82109 -0.83672,-2.23125 -2.43047,-3.86484 -1.59374,-1.67344 -3.78515,-2.58984 -2.15156,-0.91641 -4.7414,-0.91641 -2.58984,0 -4.78124,0.91641 -2.15156,0.9164 -3.74531,2.58984 -1.5539,1.63359 -2.43047,3.86484 -0.87656,2.23125 -0.87656,4.82109 0,2.58984 0.87656,4.82108 0.87657,2.23125 2.43047,3.90469 1.59375,1.63359 3.74531,2.58984 2.1914,0.9164 4.78124,0.9164 z"
           style="font-weight:bold;font-size:39.8437px;line-height:1.25;font-family:Comfortaa;-inkscape-font-specification:'Comfortaa Bold'"
           id="path2834" />
        <path
           d="m 147.46283,291.44067 q -0.87656,0 -1.47422,-0.59765 -0.59765,-0.59766 -0.59765,-1.47422 v -26.97418 q 0,-0.91641 0.59765,-1.47422 0.59766,-0.59766 1.47422,-0.59766 h 7.17186 q 2.98828,0 5.29922,1.275 2.31093,1.23516 3.58593,3.42656 1.31484,2.1914 1.31484,5.09999 0,2.70938 -1.31484,4.82109 -1.275,2.11172 -3.58593,3.30703 -2.31094,1.19531 -5.29922,1.19531 h -5.09999 v 9.92108 q 0,0.87656 -0.59765,1.47422 -0.55782,0.59765 -1.47422,0.59765 z m 16.53513,0 q -0.55781,0 -1.03593,-0.23906 -0.43828,-0.23906 -0.75703,-0.75703 l -7.17187,-11.55467 4.02421,-1.15547 6.53437,10.51874 q 0.71719,1.15547 0.19922,2.1914 -0.51797,0.99609 -1.79297,0.99609 z M 149.5347,275.62272 h 5.09999 q 1.83281,0 3.22734,-0.67734 1.39453,-0.71718 2.19141,-1.95234 0.79687,-1.275 0.79687,-2.86875 0,-1.75312 -0.79687,-3.1078 -0.79688,-1.35469 -2.19141,-2.11172 -1.39453,-0.75703 -3.22734,-0.75703 h -5.09999 z"
           style="font-weight:bold;font-size:39.8437px;line-height:1.25;font-family:Comfortaa;-inkscape-font-specification:'Comfortaa Bold'"
           id="path2836" />
        <path
           d="m 184.51746,291.83911 q -3.22734,0 -6.05624,-1.19531 -2.78906,-1.23515 -4.90077,-3.38671 -2.07188,-2.19141 -3.26719,-5.1 -1.15546,-2.90859 -1.15546,-6.2953 0,-3.34687 1.15546,-6.21562 1.19531,-2.90859 3.26719,-5.06015 2.11171,-2.1914 4.90077,-3.42656 2.78906,-1.23515 6.05624,-1.23515 3.06797,0 5.25937,0.79687 2.23125,0.79687 4.4625,2.62969 0.31875,0.23906 0.47812,0.51796 0.19922,0.23907 0.23906,0.51797 0.0797,0.23906 0.0797,0.59766 0,0.75703 -0.55781,1.275 -0.51797,0.47812 -1.275,0.55781 -0.75703,0.0398 -1.47422,-0.51797 -1.47421,-1.275 -3.06796,-1.95234 -1.55391,-0.67735 -4.14375,-0.67735 -2.35077,0 -4.42265,0.95625 -2.07187,0.95625 -3.66562,2.62969 -1.5539,1.67343 -2.43046,3.90468 -0.87656,2.1914 -0.87656,4.70156 0,2.54999 0.87656,4.78124 0.87656,2.1914 2.43046,3.86484 1.59375,1.67344 3.66562,2.62968 2.07188,0.91641 4.42265,0.91641 2.03203,0 3.825,-0.67734 1.83281,-0.71719 3.50625,-1.95234 0.71718,-0.51797 1.39452,-0.43829 0.71719,0.0399 1.19532,0.55782 0.47812,0.47812 0.47812,1.35468 0,0.39844 -0.15937,0.79688 -0.15938,0.35859 -0.47813,0.67734 -2.15156,1.71328 -4.62187,2.58984 -2.43046,0.87656 -5.13984,0.87656 z"
           style="font-weight:bold;font-size:39.8437px;line-height:1.25;font-family:Comfortaa;-inkscape-font-specification:'Comfortaa Bold'"
           id="path2838" />
        <path
           d="m 203.60261,291.44067 q -0.87656,0 -1.47421,-0.59765 -0.59766,-0.59766 -0.59766,-1.47422 v -26.97418 q 0,-0.91641 0.59766,-1.47422 0.59765,-0.59766 1.47421,-0.59766 h 18.00936 q 0.9164,0 1.47421,0.55782 0.55782,0.51796 0.55782,1.39453 0,0.83671 -0.55782,1.35468 -0.55781,0.51797 -1.47421,0.51797 h -15.93748 v 9.68202 h 11.43514 q 0.9164,0 1.47422,0.55781 0.55781,0.51797 0.55781,1.35469 0,0.83671 -0.55781,1.39453 -0.55782,0.51796 -1.47422,0.51796 h -11.43514 v 9.96093 h 15.93748 q 0.9164,0 1.47421,0.51797 0.55782,0.51796 0.55782,1.35468 0,0.87656 -0.55782,1.43438 -0.55781,0.51796 -1.47421,0.51796 z"
           style="font-weight:bold;font-size:39.8437px;line-height:1.25;font-family:Comfortaa;-inkscape-font-specification:'Comfortaa Bold'"
           id="path2840" />
        <path
           d="m 235.03933,291.44067 q -0.79688,0 -1.39453,-0.59765 -0.59766,-0.59766 -0.59766,-1.43437 v -24.30466 l -2.90859,1.23515 q -0.67734,0.27891 -1.275,0.27891 -0.87656,0 -1.47421,-0.55781 -0.55781,-0.55782 -0.55781,-1.43438 0,-0.6375 0.31875,-1.15546 0.31875,-0.51797 0.99609,-0.75703 l 6.21562,-2.23125 q 0.19921,-0.0797 0.39843,-0.11953 0.19922,-0.0399 0.3586,-0.0399 0.9164,0 1.43437,0.59766 0.55781,0.55781 0.55781,1.47422 v 27.01403 q 0,0.83671 -0.59765,1.43437 -0.59766,0.59765 -1.47422,0.59765 z"
           style="font-weight:bold;font-size:39.8437px;line-height:1.25;font-family:Comfortaa;-inkscape-font-specification:'Comfortaa Bold'"
           id="path2842" />
        <path
           d="m 250.69788,291.44067 q -0.79687,0 -1.39453,-0.59765 -0.59765,-0.59766 -0.59765,-1.43437 v -24.30466 l -2.90859,1.23515 q -0.67735,0.27891 -1.275,0.27891 -0.87656,0 -1.47422,-0.55781 -0.55781,-0.55782 -0.55781,-1.43438 0,-0.6375 0.31875,-1.15546 0.31875,-0.51797 0.99609,-0.75703 l 6.21562,-2.23125 q 0.19922,-0.0797 0.39844,-0.11953 0.19921,-0.0399 0.35859,-0.0399 0.9164,0 1.43437,0.59766 0.55781,0.55781 0.55781,1.47422 v 27.01403 q 0,0.83671 -0.59765,1.43437 -0.59766,0.59765 -1.47422,0.59765 z"
           style="font-weight:bold;font-size:39.8437px;line-height:1.25;font-family:Comfortaa;-inkscape-font-specification:'Comfortaa Bold'"
           id="path2844" />
      </g>
      <g
         id="g944"
         transform="translate(47.182082,2)">
        <path
           style="opacity:1;fill:#8abfd0;fill-opacity:1;fill-rule:nonzero;stroke:none;stroke-opacity:1"
           d="M 43.113281,1 A 42.113754,41.374916 0 0 0 1,42.375 42.113754,41.374916 0 0 0 43.113281,83.75 42.113754,41.374916 0 0 0 85.226562,42.375 42.113754,41.374916 0 0 0 43.113281,1 Z m 2.402344,5.9082031 A 35.467285,35.467285 0 0 1 80.984375,42.375 35.467285,35.467285 0 0 1 45.515625,77.841797 35.467285,35.467285 0 0 1 10.048828,42.375 35.467285,35.467285 0 0 1 45.515625,6.9082031 Z"
           id="path4205"
           transform="translate(76.73063,166.96319)"
           inkscape:export-filename="C:\Users\simon\OneDrive\Documents\GitHub\force11-website\images\force11-logo\force11-logotype-horizontal.png"
           inkscape:export-xdpi="76.769997"
           inkscape:export-ydpi="76.769997" />
        <path
           style="opacity:1;fill:#8abfd0;fill-opacity:1;fill-rule:nonzero;stroke:none;stroke-opacity:1"
           d="M 38.472656,18.359375 A 24.01528,24.01528 0 0 0 14.457031,42.375 24.01528,24.01528 0 0 0 38.472656,66.390625 24.01528,24.01528 0 0 0 62.488281,42.375 24.01528,24.01528 0 0 0 38.472656,18.359375 Z m 0.8125,6.613281 A 17.402374,17.402374 0 0 1 56.6875,42.375 17.402374,17.402374 0 0 1 39.285156,59.777344 17.402374,17.402374 0 0 1 21.882812,42.375 17.402374,17.402374 0 0 1 39.285156,24.972656 Z"
           id="path4207"
           transform="translate(76.73063,166.96319)" />
        <circle
           r="9.3972845"
           cy="209.3381"
           cx="111.72325"
           id="path4209"
           style="opacity:1;fill:#8abfd0;fill-opacity:1;fill-rule:nonzero;stroke:none;stroke-opacity:1" />
        <circle
           r="9.5493736"
           cy="209.08591"
           cx="112.6826"
           id="path4184"
           style="opacity:0.486;fill:#54eeff;fill-opacity:0;stroke:none;stroke-opacity:1" />
      </g>
    </g>
  </g>
</svg>
