<?xml version="1.0" encoding="UTF-8" standalone="no"?>
<!-- Created with Inkscape (http://www.inkscape.org/) -->

<svg
   width="494.7171"
   height="84.749832"
   viewBox="0 0 494.7171 84.749831"
   id="svg4327"
   version="1.1"
   inkscape:version="1.1.1 (3bf5ae0d25, 2021-09-20)"
   sodipodi:docname="force11-logotype-horizontal.svg"
   inkscape:export-filename="\\tib.tibub.de\DFS0\Home\WorthingtonS\Documents\force11\design\logo-font-comfortaa\logo090721\force11-logo-09072021-8CBFD0-272727.png"
   inkscape:export-xdpi="76.769997"
   inkscape:export-ydpi="76.769997"
   xmlns:inkscape="http://www.inkscape.org/namespaces/inkscape"
   xmlns:sodipodi="http://sodipodi.sourceforge.net/DTD/sodipodi-0.dtd"
   xmlns="http://www.w3.org/2000/svg"
   xmlns:svg="http://www.w3.org/2000/svg"
   xmlns:rdf="http://www.w3.org/1999/02/22-rdf-syntax-ns#"
   xmlns:cc="http://creativecommons.org/ns#"
   xmlns:dc="http://purl.org/dc/elements/1.1/">
  <defs
     id="defs4329" />
  <sodipodi:namedview
     id="base"
     pagecolor="#ffffff"
     bordercolor="#666666"
     borderopacity="1.0"
     inkscape:pageopacity="0.0"
     inkscape:pageshadow="2"
     inkscape:zoom="2.4550403"
     inkscape:cx="144.19315"
     inkscape:cy="29.531083"
     inkscape:document-units="px"
     inkscape:current-layer="g4952"
     showgrid="false"
     units="px"
     fit-margin-top="1"
     fit-margin-left="1"
     fit-margin-right="1"
     fit-margin-bottom="1"
     inkscape:window-width="1920"
     inkscape:window-height="1057"
     inkscape:window-x="-8"
     inkscape:window-y="-8"
     inkscape:window-maximized="1"
     inkscape:pagecheckerboard="0" />
  <metadata
     id="metadata4332">
    <rdf:RDF>
      <cc:Work
         rdf:about="">
        <dc:format>image/svg+xml</dc:format>
        <dc:type
           rdf:resource="http://purl.org/dc/dcmitype/StillImage" />
        <dc:title />
      </cc:Work>
    </rdf:RDF>
  </metadata>
  <g
     inkscape:label="Layer 1"
     inkscape:groupmode="layer"
     id="layer1"
     transform="translate(285.51257,-701.22861)">
    <g
       transform="translate(-362.2432,534.26542)"
       id="g4952">
      <text
         id="text4136"
         y="243.70818"
         x="179.27588"
         style="font-style:normal;font-weight:normal;line-height:0%;font-family:sans-serif;letter-spacing:0px;word-spacing:0px;fill:#272727;fill-opacity:1;stroke:#272727;stroke-width:1px;stroke-linecap:butt;stroke-linejoin:miter;stroke-opacity:1"
         xml:space="preserve"><tspan
           style="font-style:normal;font-variant:normal;font-weight:bold;font-stretch:normal;font-size:90px;line-height:1.25;font-family:Comfortaa;-inkscape-font-specification:'Comfortaa Bold';fill:#272727;fill-opacity:1;stroke:#272727;stroke-opacity:1"
           y="243.70818"
           x="179.27588"
           id="tspan4138"
           sodipodi:role="line">FORCE11</tspan></text>
      <path
         style="opacity:1;fill:#8abfd0;fill-opacity:1;fill-rule:nonzero;stroke:none;stroke-opacity:1"
         d="M 43.113281 1 A 42.113754 41.374916 0 0 0 1 42.375 A 42.113754 41.374916 0 0 0 43.113281 83.75 A 42.113754 41.374916 0 0 0 85.226562 42.375 A 42.113754 41.374916 0 0 0 43.113281 1 z M 45.515625 6.9082031 A 35.467285 35.467285 0 0 1 80.984375 42.375 A 35.467285 35.467285 0 0 1 45.515625 77.841797 A 35.467285 35.467285 0 0 1 10.048828 42.375 A 35.467285 35.467285 0 0 1 45.515625 6.9082031 z "
         id="path4205"
         transform="translate(76.73063,166.96319)"
         inkscape:export-filename="C:\Users\simon\OneDrive\Documents\GitHub\force11-website\images\force11-logo\force11-logotype-horizontal.png"
         inkscape:export-xdpi="76.769997"
         inkscape:export-ydpi="76.769997" />
      <path
         style="opacity:1;fill:#8abfd0;fill-opacity:1;fill-rule:nonzero;stroke:none;stroke-opacity:1"
         d="M 38.472656 18.359375 A 24.01528 24.01528 0 0 0 14.457031 42.375 A 24.01528 24.01528 0 0 0 38.472656 66.390625 A 24.01528 24.01528 0 0 0 62.488281 42.375 A 24.01528 24.01528 0 0 0 38.472656 18.359375 z M 39.285156 24.972656 A 17.402374 17.402374 0 0 1 56.6875 42.375 A 17.402374 17.402374 0 0 1 39.285156 59.777344 A 17.402374 17.402374 0 0 1 21.882812 42.375 A 17.402374 17.402374 0 0 1 39.285156 24.972656 z "
         id="path4207"
         transform="translate(76.73063,166.96319)" />
      <circle
         r="9.3972845"
         cy="209.3381"
         cx="111.72325"
         id="path4209"
         style="opacity:1;fill:#8abfd0;fill-opacity:1;fill-rule:nonzero;stroke:none;stroke-opacity:1" />
      <circle
         r="9.5493736"
         cy="209.08591"
         cx="112.6826"
         id="path4184"
         style="opacity:0.48600003;fill:#54eeff;fill-opacity:0;stroke:none;stroke-opacity:1" />
    </g>
  </g>
</svg>
