<?xml version="1.0" encoding="UTF-8" standalone="no"?>
<!-- Created with Inkscape (http://www.inkscape.org/) -->

<svg
   width="300"
   height="270"
   viewBox="0 0 300 270"
   id="svg4327"
   version="1.1"
   inkscape:version="1.2.2 (732a01da63, 2022-12-09)"
   sodipodi:docname="fsci-logotype.svg"
   inkscape:export-filename="\\tib.tibub.de\DFS0\Home\WorthingtonS\Documents\force11\design\logo-font-comfortaa\logo090721\force11-logo-09072021-8CBFD0-272727.png"
   inkscape:export-xdpi="76.769997"
   inkscape:export-ydpi="76.769997"
   xmlns:inkscape="http://www.inkscape.org/namespaces/inkscape"
   xmlns:sodipodi="http://sodipodi.sourceforge.net/DTD/sodipodi-0.dtd"
   xmlns:xlink="http://www.w3.org/1999/xlink"
   xmlns="http://www.w3.org/2000/svg"
   xmlns:svg="http://www.w3.org/2000/svg"
   xmlns:rdf="http://www.w3.org/1999/02/22-rdf-syntax-ns#"
   xmlns:cc="http://creativecommons.org/ns#"
   xmlns:dc="http://purl.org/dc/elements/1.1/">
  <defs
     id="defs4329">
    <linearGradient
       inkscape:collect="always"
       id="linearGradient6096">
      <stop
         style="stop-color:#2e7599;stop-opacity:1;"
         offset="0"
         id="stop6092" />
      <stop
         style="stop-color:#2e7599;stop-opacity:0;"
         offset="1"
         id="stop6094" />
    </linearGradient>
    <linearGradient
       inkscape:collect="always"
       xlink:href="#linearGradient6096"
       id="linearGradient6098"
       x1="125.85835"
       y1="213.37781"
       x2="329.98802"
       y2="213.37781"
       gradientUnits="userSpaceOnUse" />
  </defs>
  <sodipodi:namedview
     id="base"
     pagecolor="#ffffff"
     bordercolor="#666666"
     borderopacity="1.0"
     inkscape:pageopacity="0.0"
     inkscape:pageshadow="2"
     inkscape:zoom="2.4550403"
     inkscape:cx="202.03334"
     inkscape:cy="127.08549"
     inkscape:document-units="px"
     inkscape:current-layer="text4136"
     showgrid="false"
     units="px"
     fit-margin-top="1"
     fit-margin-left="1"
     fit-margin-right="1"
     fit-margin-bottom="1"
     inkscape:window-width="1920"
     inkscape:window-height="1057"
     inkscape:window-x="-8"
     inkscape:window-y="-8"
     inkscape:window-maximized="1"
     inkscape:pagecheckerboard="0"
     width="400px"
     inkscape:showpageshadow="2"
     inkscape:deskcolor="#d1d1d1" />
  <metadata
     id="metadata4332">
    <rdf:RDF>
      <cc:Work
         rdf:about="">
        <dc:format>image/svg+xml</dc:format>
        <dc:type
           rdf:resource="http://purl.org/dc/dcmitype/StillImage" />
      </cc:Work>
    </rdf:RDF>
  </metadata>
  <g
     inkscape:label="Layer 1"
     inkscape:groupmode="layer"
     id="layer1"
     transform="translate(285.51257,-701.22861)">
    <g
       transform="translate(-362.2432,534.26542)"
       id="g4952">
      <g
         aria-label="FSCI"
         id="text4136"
         style="line-height:0%;letter-spacing:0px;word-spacing:0px;fill:#2e7599;stroke:#2e7599;stroke-width:1px">
        <path
           d="m 131.03835,248.52281 q -1.98,0 -3.33,-1.35 -1.35,-1.35 -1.35,-3.33 v -60.93 q 0,-2.07 1.35,-3.33 1.35,-1.35 3.33,-1.35 h 40.68 q 2.07,0 3.33,1.26 1.26,1.17 1.26,3.15 0,1.89 -1.26,3.06 -1.26,1.17 -3.33,1.17 h -36 v 21.87 h 25.83 q 2.07,0 3.33,1.26 1.26,1.17 1.26,3.06 0,1.89 -1.26,3.15 -1.26,1.17 -3.33,1.17 h -25.83 v 26.46 q 0,1.98 -1.35,3.33 -1.35,1.35 -3.33,1.35 z"
           style="font-weight:bold;font-size:90px;line-height:1.25;font-family:Comfortaa;-inkscape-font-specification:'Comfortaa Bold'"
           id="path3077" />
        <path
           d="m 210.59835,249.42281 q -5.76,0 -10.98,-1.8 -5.22,-1.8 -9.09,-5.04 -3.87,-3.24 -5.67,-7.47 -0.9,-1.89 0,-3.51 0.99,-1.62 3.24,-2.07 1.62,-0.36 3.15,0.54 1.62,0.81 2.43,2.52 1.08,2.25 3.51,4.14 2.52,1.89 6.03,3.06 3.51,1.17 7.38,1.17 4.32,0 7.92,-1.35 3.69,-1.35 5.94,-3.87 2.25,-2.61 2.25,-6.39 0,-4.77 -3.78,-8.55 -3.69,-3.78 -12.24,-4.68 -11.16,-1.08 -17.55,-6.57 -6.39,-5.49 -6.39,-13.59 0,-5.94 3.33,-10.08 3.33,-4.14 9,-6.3 5.76,-2.16 12.78,-2.16 5.49,0 9.54,1.53 4.14,1.53 7.2,4.23 3.06,2.7 5.31,6.39 1.26,1.98 0.99,3.78 -0.18,1.71 -1.71,2.7 -1.71,1.08 -3.69,0.45 -1.98,-0.63 -2.97,-2.34 -1.44,-2.61 -3.51,-4.41 -2.07,-1.8 -4.86,-2.79 -2.79,-1.08 -6.57,-1.08 -6.66,-0.09 -11.16,2.52 -4.5,2.52 -4.5,7.83 0,2.7 1.35,5.22 1.44,2.43 5.13,4.23 3.78,1.8 10.8,2.52 10.71,1.08 16.65,6.57 6.03,5.4 6.03,14.31 0,5.13 -2.16,8.91 -2.07,3.78 -5.67,6.39 -3.51,2.52 -8.1,3.78 -4.5,1.26 -9.36,1.26 z"
           style="font-weight:bold;font-size:90px;line-height:1.25;font-family:Comfortaa;-inkscape-font-specification:'Comfortaa Bold'"
           id="path3079" />
        <path
           d="m 281.69833,249.42281 q -7.29,0 -13.68,-2.7 -6.3,-2.79 -11.07,-7.65 -4.68,-4.95 -7.38,-11.52 -2.61,-6.57 -2.61,-14.22 0,-7.56 2.61,-14.04 2.7,-6.57 7.38,-11.43 4.77,-4.95 11.07,-7.74 6.3,-2.79 13.68,-2.79 6.93,0 11.88,1.8 5.04,1.8 10.08,5.94 0.72,0.54 1.08,1.17 0.45,0.54 0.54,1.17 0.18,0.54 0.18,1.35 0,1.71 -1.26,2.88 -1.17,1.08 -2.88,1.26 -1.71,0.09 -3.33,-1.17 -3.33,-2.88 -6.93,-4.41 -3.51,-1.53 -9.36,-1.53 -5.31,0 -9.99,2.16 -4.68,2.16 -8.28,5.94 -3.51,3.78 -5.49,8.82 -1.98,4.95 -1.98,10.62 0,5.76 1.98,10.8 1.98,4.95 5.49,8.73 3.6,3.78 8.28,5.94 4.68,2.07 9.99,2.07 4.59,0 8.64,-1.53 4.14,-1.62 7.92,-4.41 1.62,-1.17 3.15,-0.99 1.62,0.09 2.7,1.26 1.08,1.08 1.08,3.06 0,0.9 -0.36,1.8 -0.36,0.81 -1.08,1.53 -4.86,3.87 -10.44,5.85 -5.49,1.98 -11.61,1.98 z"
           style="font-weight:bold;font-size:90px;line-height:1.25;font-family:Comfortaa;-inkscape-font-specification:'Comfortaa Bold'"
           id="path3081" />
        <path
           d="m 324.80836,248.52281 q -1.98,0 -3.33,-1.35 -1.35,-1.35 -1.35,-3.33 v -60.93 q 0,-2.07 1.35,-3.33 1.35,-1.35 3.33,-1.35 2.07,0 3.33,1.35 1.35,1.26 1.35,3.33 v 60.93 q 0,1.98 -1.35,3.33 -1.26,1.35 -3.33,1.35 z"
           style="font-weight:bold;font-size:90px;line-height:1.25;font-family:Comfortaa;-inkscape-font-specification:'Comfortaa Bold'"
           id="path3083" />
      </g>
      <g
         aria-label="FSCI"
         id="text4010"
         style="line-height:0%;letter-spacing:0px;word-spacing:0px;fill:#37aec3;stroke:#37aec3;stroke-width:1px">
        <path
           d="m 131.03835,337.11606 q -1.98,0 -3.33,-1.35 -1.35,-1.35 -1.35,-3.33 v -60.93 q 0,-2.07 1.35,-3.33 1.35,-1.35 3.33,-1.35 h 40.68 q 2.07,0 3.33,1.26 1.26,1.17 1.26,3.15 0,1.89 -1.26,3.06 -1.26,1.17 -3.33,1.17 h -36 v 21.87 h 25.83 q 2.07,0 3.33,1.26 1.26,1.17 1.26,3.06 0,1.89 -1.26,3.15 -1.26,1.17 -3.33,1.17 h -25.83 v 26.46 q 0,1.98 -1.35,3.33 -1.35,1.35 -3.33,1.35 z"
           style="font-weight:bold;font-size:90px;line-height:1.25;font-family:Comfortaa;-inkscape-font-specification:'Comfortaa Bold'"
           id="path3086" />
        <path
           d="m 210.59835,338.01606 q -5.76,0 -10.98,-1.8 -5.22,-1.8 -9.09,-5.04 -3.87,-3.24 -5.67,-7.47 -0.9,-1.89 0,-3.51 0.99,-1.62 3.24,-2.07 1.62,-0.36 3.15,0.54 1.62,0.81 2.43,2.52 1.08,2.25 3.51,4.14 2.52,1.89 6.03,3.06 3.51,1.17 7.38,1.17 4.32,0 7.92,-1.35 3.69,-1.35 5.94,-3.87 2.25,-2.61 2.25,-6.39 0,-4.77 -3.78,-8.55 -3.69,-3.78 -12.24,-4.68 -11.16,-1.08 -17.55,-6.57 -6.39,-5.49 -6.39,-13.59 0,-5.94 3.33,-10.08 3.33,-4.14 9,-6.3 5.76,-2.16 12.78,-2.16 5.49,0 9.54,1.53 4.14,1.53 7.2,4.23 3.06,2.7 5.31,6.39 1.26,1.98 0.99,3.78 -0.18,1.71 -1.71,2.7 -1.71,1.08 -3.69,0.45 -1.98,-0.63 -2.97,-2.34 -1.44,-2.61 -3.51,-4.41 -2.07,-1.8 -4.86,-2.79 -2.79,-1.08 -6.57,-1.08 -6.66,-0.09 -11.16,2.52 -4.5,2.52 -4.5,7.83 0,2.7 1.35,5.22 1.44,2.43 5.13,4.23 3.78,1.8 10.8,2.52 10.71,1.08 16.65,6.57 6.03,5.4 6.03,14.31 0,5.13 -2.16,8.91 -2.07,3.78 -5.67,6.39 -3.51,2.52 -8.1,3.78 -4.5,1.26 -9.36,1.26 z"
           style="font-weight:bold;font-size:90px;line-height:1.25;font-family:Comfortaa;-inkscape-font-specification:'Comfortaa Bold'"
           id="path3088" />
        <path
           d="m 281.69833,338.01606 q -7.29,0 -13.68,-2.7 -6.3,-2.79 -11.07,-7.65 -4.68,-4.95 -7.38,-11.52 -2.61,-6.57 -2.61,-14.22 0,-7.56 2.61,-14.04 2.7,-6.57 7.38,-11.43 4.77,-4.95 11.07,-7.74 6.3,-2.79 13.68,-2.79 6.93,0 11.88,1.8 5.04,1.8 10.08,5.94 0.72,0.54 1.08,1.17 0.45,0.54 0.54,1.17 0.18,0.54 0.18,1.35 0,1.71 -1.26,2.88 -1.17,1.08 -2.88,1.26 -1.71,0.09 -3.33,-1.17 -3.33,-2.88 -6.93,-4.41 -3.51,-1.53 -9.36,-1.53 -5.31,0 -9.99,2.16 -4.68,2.16 -8.28,5.94 -3.51,3.78 -5.49,8.82 -1.98,4.95 -1.98,10.62 0,5.76 1.98,10.8 1.98,4.95 5.49,8.73 3.6,3.78 8.28,5.94 4.68,2.07 9.99,2.07 4.59,0 8.64,-1.53 4.14,-1.62 7.92,-4.41 1.62,-1.17 3.15,-0.99 1.62,0.09 2.7,1.26 1.08,1.08 1.08,3.06 0,0.9 -0.36,1.8 -0.36,0.81 -1.08,1.53 -4.86,3.87 -10.44,5.85 -5.49,1.98 -11.61,1.98 z"
           style="font-weight:bold;font-size:90px;line-height:1.25;font-family:Comfortaa;-inkscape-font-specification:'Comfortaa Bold'"
           id="path3090" />
        <path
           d="m 324.80836,337.11606 q -1.98,0 -3.33,-1.35 -1.35,-1.35 -1.35,-3.33 v -60.93 q 0,-2.07 1.35,-3.33 1.35,-1.35 3.33,-1.35 2.07,0 3.33,1.35 1.35,1.26 1.35,3.33 v 60.93 q 0,1.98 -1.35,3.33 -1.26,1.35 -3.33,1.35 z"
           style="font-weight:bold;font-size:90px;line-height:1.25;font-family:Comfortaa;-inkscape-font-specification:'Comfortaa Bold'"
           id="path3092" />
      </g>
      <g
         aria-label="FSCI"
         id="text4014"
         style="line-height:0%;letter-spacing:0px;word-spacing:0px;fill:#5fdeea;stroke:#5fdeea;stroke-width:1px">
        <path
           d="m 131.03835,425.70932 q -1.98,0 -3.33,-1.35 -1.35,-1.35 -1.35,-3.33 v -60.93 q 0,-2.07 1.35,-3.33 1.35,-1.35 3.33,-1.35 h 40.68 q 2.07,0 3.33,1.26 1.26,1.17 1.26,3.15 0,1.89 -1.26,3.06 -1.26,1.17 -3.33,1.17 h -36 v 21.87 h 25.83 q 2.07,0 3.33,1.26 1.26,1.17 1.26,3.06 0,1.89 -1.26,3.15 -1.26,1.17 -3.33,1.17 h -25.83 v 26.46 q 0,1.98 -1.35,3.33 -1.35,1.35 -3.33,1.35 z"
           style="font-weight:bold;font-size:90px;line-height:1.25;font-family:Comfortaa;-inkscape-font-specification:'Comfortaa Bold'"
           id="path3095" />
        <path
           d="m 210.59835,426.60932 q -5.76,0 -10.98,-1.8 -5.22,-1.8 -9.09,-5.04 -3.87,-3.24 -5.67,-7.47 -0.9,-1.89 0,-3.51 0.99,-1.62 3.24,-2.07 1.62,-0.36 3.15,0.54 1.62,0.81 2.43,2.52 1.08,2.25 3.51,4.14 2.52,1.89 6.03,3.06 3.51,1.17 7.38,1.17 4.32,0 7.92,-1.35 3.69,-1.35 5.94,-3.87 2.25,-2.61 2.25,-6.39 0,-4.77 -3.78,-8.55 -3.69,-3.78 -12.24,-4.68 -11.16,-1.08 -17.55,-6.57 -6.39,-5.49 -6.39,-13.59 0,-5.94 3.33,-10.08 3.33,-4.14 9,-6.3 5.76,-2.16 12.78,-2.16 5.49,0 9.54,1.53 4.14,1.53 7.2,4.23 3.06,2.7 5.31,6.39 1.26,1.98 0.99,3.78 -0.18,1.71 -1.71,2.7 -1.71,1.08 -3.69,0.45 -1.98,-0.63 -2.97,-2.34 -1.44,-2.61 -3.51,-4.41 -2.07,-1.8 -4.86,-2.79 -2.79,-1.08 -6.57,-1.08 -6.66,-0.09 -11.16,2.52 -4.5,2.52 -4.5,7.83 0,2.7 1.35,5.22 1.44,2.43 5.13,4.23 3.78,1.8 10.8,2.52 10.71,1.08 16.65,6.57 6.03,5.4 6.03,14.31 0,5.13 -2.16,8.91 -2.07,3.78 -5.67,6.39 -3.51,2.52 -8.1,3.78 -4.5,1.26 -9.36,1.26 z"
           style="font-weight:bold;font-size:90px;line-height:1.25;font-family:Comfortaa;-inkscape-font-specification:'Comfortaa Bold'"
           id="path3097" />
        <path
           d="m 281.69833,426.60932 q -7.29,0 -13.68,-2.7 -6.3,-2.79 -11.07,-7.65 -4.68,-4.95 -7.38,-11.52 -2.61,-6.57 -2.61,-14.22 0,-7.56 2.61,-14.04 2.7,-6.57 7.38,-11.43 4.77,-4.95 11.07,-7.74 6.3,-2.79 13.68,-2.79 6.93,0 11.88,1.8 5.04,1.8 10.08,5.94 0.72,0.54 1.08,1.17 0.45,0.54 0.54,1.17 0.18,0.54 0.18,1.35 0,1.71 -1.26,2.88 -1.17,1.08 -2.88,1.26 -1.71,0.09 -3.33,-1.17 -3.33,-2.88 -6.93,-4.41 -3.51,-1.53 -9.36,-1.53 -5.31,0 -9.99,2.16 -4.68,2.16 -8.28,5.94 -3.51,3.78 -5.49,8.82 -1.98,4.95 -1.98,10.62 0,5.76 1.98,10.8 1.98,4.95 5.49,8.73 3.6,3.78 8.28,5.94 4.68,2.07 9.99,2.07 4.59,0 8.64,-1.53 4.14,-1.62 7.92,-4.41 1.62,-1.17 3.15,-0.99 1.62,0.09 2.7,1.26 1.08,1.08 1.08,3.06 0,0.9 -0.36,1.8 -0.36,0.81 -1.08,1.53 -4.86,3.87 -10.44,5.85 -5.49,1.98 -11.61,1.98 z"
           style="font-weight:bold;font-size:90px;line-height:1.25;font-family:Comfortaa;-inkscape-font-specification:'Comfortaa Bold'"
           id="path3099" />
        <path
           d="m 324.80836,425.70932 q -1.98,0 -3.33,-1.35 -1.35,-1.35 -1.35,-3.33 v -60.93 q 0,-2.07 1.35,-3.33 1.35,-1.35 3.33,-1.35 2.07,0 3.33,1.35 1.35,1.26 1.35,3.33 v 60.93 q 0,1.98 -1.35,3.33 -1.26,1.35 -3.33,1.35 z"
           style="font-weight:bold;font-size:90px;line-height:1.25;font-family:Comfortaa;-inkscape-font-specification:'Comfortaa Bold'"
           id="path3101" />
      </g>
    </g>
  </g>
</svg>
